<svg width="100%" height="100%" viewBox="0 0 100 100" fill="none" xmlns="http://www.w3.org/2000/svg">
    <path d="M72.3239 79.6413C72.3239 80.7459 73.2193 81.6413 74.3239 81.6413H83.5932C84.6978 81.6413 85.5932 82.5367 85.5932 83.6413V88C85.5932 89.1046 84.6978 90 83.5932 90H65.5593C64.4548 90 63.5593 89.1046 63.5593 88V57.1721C63.5593 56.0675 64.4548 55.1721 65.5593 55.1721H83.3484C84.453 55.1721 85.3484 56.0675 85.3484 57.1721V61.481C85.3484 62.5856 84.453 63.481 83.3484 63.481H74.3239C73.2193 63.481 72.3239 64.3764 72.3239 65.481V66.3072C72.3239 67.4117 73.2193 68.3072 74.3239 68.3072H82.1243C83.2289 68.3072 84.1243 69.2026 84.1243 70.3072V74.5166C84.1243 75.6212 83.2289 76.5166 82.1243 76.5166H74.3239C73.2193 76.5166 72.3239 77.4121 72.3239 78.5166V79.6413Z" fill="currentColor"/>
    <path d="M44.9981 90C41.249 90 38.1417 89.2161 35.6761 87.6483C33.7059 86.3955 32.2101 84.7912 31.1888 82.8356C30.7379 81.972 31.126 80.9388 31.9707 80.4535L36.3042 77.9639C37.3442 77.3664 38.6479 77.8408 39.3749 78.7948C40.7461 80.5941 42.7049 81.4937 45.2514 81.4937C48.021 81.4937 49.4058 80.7098 49.4058 79.142C49.4058 78.1079 48.6121 77.274 47.0246 76.6402C46.3491 76.3733 44.863 75.923 42.5663 75.2892C39.3238 74.3551 36.7569 73.0542 34.8655 71.3863C32.974 69.685 32.0283 67.3333 32.0283 64.3311C32.0283 61.0954 33.1936 58.4768 35.5241 56.4753C37.8884 54.4739 40.8268 53.4731 44.3395 53.4731C47.3117 53.4731 49.9462 54.157 52.2429 55.5246C54.0401 56.5948 55.5064 58.0429 56.6418 59.8688C57.1891 60.7489 56.8241 61.8775 55.9273 62.3971L51.865 64.7509C50.8268 65.3525 49.5283 64.8727 48.7619 63.9496C47.6712 62.6361 46.214 61.9794 44.3901 61.9794C43.3093 61.9794 42.4818 62.1962 41.9076 62.6299C41.3672 63.0635 41.097 63.6139 41.097 64.2811C41.097 65.0483 41.5023 65.6988 42.313 66.2325C43.1573 66.7662 44.7786 67.3834 47.1766 68.0839C48.8992 68.5842 50.284 69.0512 51.331 69.4849C52.378 69.9186 53.5264 70.5524 54.7761 71.3863C56.0258 72.1869 56.9546 73.2377 57.5626 74.5386C58.1705 75.8062 58.4745 77.3073 58.4745 79.0419C58.4745 82.4778 57.2417 85.1631 54.7761 87.0979C52.3105 89.0326 49.0512 90 44.9981 90Z" fill="currentColor"/>
    <path d="M17.7966 55.4731C17.7966 54.3685 18.6921 53.4731 19.7966 53.4731H25.9661C27.0707 53.4731 27.9661 54.3685 27.9661 55.4731V73.5591C27.9661 74.6637 27.0707 75.5591 25.9661 75.5591H19.7966C18.6921 75.5591 17.7966 74.6637 17.7966 73.5591V55.4731Z" fill="currentColor"/>
    <path d="M90.678 29.1398C90.678 28.0352 91.5734 27.1398 92.678 27.1398H98C99.1046 27.1398 100 28.0352 100 29.1398V88C100 89.1046 99.1046 90 98 90H92.678C91.5734 90 90.678 89.1046 90.678 88V29.1398Z" fill="currentColor"/>
    <path d="M90.678 13C90.678 11.8954 91.5734 11 92.678 11H98C99.1046 11 100 11.8954 100 13V18.3441C100 19.4487 99.1046 20.3441 98 20.3441H92.678C91.5734 20.3441 90.678 19.4487 90.678 18.3441V13Z" fill="currentColor"/>
    <path d="M67.7735 45.828C66.9054 45.828 66.1364 45.268 65.87 44.4418L55.9277 13.6139C55.5112 12.3225 56.4743 11 57.8312 11H63.3118C64.2074 11 64.9938 11.5954 65.2368 12.4574L69.6673 28.1768C70.2145 30.1181 72.9654 30.1207 73.5163 28.1804L77.9815 12.4537C78.2257 11.5936 79.0113 11 79.9055 11H85.3891C86.746 11 87.709 12.3225 87.2926 13.6139L77.3503 44.4418C77.0838 45.268 76.3149 45.828 75.4468 45.828H67.7735Z" fill="currentColor"/>
    <path d="M40.1206 35.4692C40.1206 36.5738 41.016 37.4692 42.1206 37.4692H51.3899C52.4944 37.4692 53.3899 38.3647 53.3899 39.4692V43.828C53.3899 44.9325 52.4944 45.828 51.3899 45.828H33.356C32.2514 45.828 31.356 44.9325 31.356 43.828V13C31.356 11.8954 32.2514 11 33.356 11H51.145C52.2496 11 53.145 11.8954 53.145 13V17.309C53.145 18.4135 52.2496 19.309 51.145 19.309H42.1206C41.016 19.309 40.1206 20.2044 40.1206 21.309V22.1351C40.1206 23.2397 41.016 24.1351 42.1206 24.1351H49.9209C51.0255 24.1351 51.9209 25.0305 51.9209 26.1351V30.3446C51.9209 31.4491 51.0255 32.3446 49.9209 32.3446H42.1206C41.016 32.3446 40.1206 33.24 40.1206 34.3446V35.4692Z" fill="currentColor"/>
    <path fill-rule="evenodd" clip-rule="evenodd" d="M17.7615 45.5413C18.109 46.1934 18.7877 46.6007 19.5265 46.6007H24.5869C26.1073 46.6007 27.0717 44.9712 26.3401 43.6384L21.6824 35.1525C21.1572 34.1957 21.5104 33.0084 22.3634 32.3275C23.4574 31.4542 24.371 30.4141 25.1042 29.2072C26.1753 27.4102 26.7109 25.4437 26.7109 23.3077C26.7109 19.7476 25.4892 16.8148 23.0457 14.5092C20.6357 12.1697 17.6399 11 14.0584 11H2C0.895431 11 0 11.8954 0 13V57.172V58.2688V88C0 89.1046 0.895429 90 2 90H25.9661C27.0707 90 27.9661 89.1046 27.9661 88V83.3925C27.9661 82.288 27.0707 81.3925 25.9661 81.3925H11.0248C9.92021 81.3925 9.02477 80.4971 9.02477 79.3925V57.172C9.02477 57.0396 9.01189 56.9101 8.98731 56.7848V37.1068C8.98731 36.0022 9.89081 35.1068 10.9954 35.1068C11.7342 35.1068 12.4177 35.5141 12.7652 36.1661L17.7615 45.5413ZM8.98731 21.3916C8.98731 20.287 9.88274 19.3916 10.9873 19.3916H13.9579C15.0625 19.3916 15.9663 19.7646 16.6692 20.5105C17.3721 21.2564 17.7236 22.2227 17.7236 23.4094C17.7236 24.5961 17.3721 25.5624 16.6692 26.3083C15.9663 27.0542 15.0625 27.4102 13.9579 27.3763H10.9873C9.88274 27.3763 8.98731 26.4809 8.98731 25.3763V21.3916Z" fill="currentColor"/>
</svg>
