<?xml version="1.0" encoding="UTF-8"?>
<!-- this file is generated with npm run sprite -->
<svg xmlns="http://www.w3.org/2000/svg" xml:space="preserve">
<symbol id="icon-github" viewBox="0 0 30 30">
    <path d="M15,3C8.373,3,3,8.373,3,15c0,5.623,3.872,10.328,9.092,11.63C12.036,26.468,12,26.28,12,26.047v-2.051 c-0.487,0-1.303,0-1.508,0c-0.821,0-1.551-0.353-1.905-1.009c-0.393-0.729-0.461-1.844-1.435-2.526 c-0.289-0.227-0.069-0.486,0.264-0.451c0.615,0.174,1.125,0.596,1.605,1.222c0.478,0.627,0.703,0.769,1.596,0.769 c0.433,0,1.081-0.025,1.691-0.121c0.328-0.833,0.895-1.6,1.588-1.962c-3.996-0.411-5.903-2.399-5.903-5.098 c0-1.162,0.495-2.286,1.336-3.233C9.053,10.647,8.706,8.73,9.435,8c1.798,0,2.885,1.166,3.146,1.481C13.477,9.174,14.461,9,15.495,9 c1.036,0,2.024,0.174,2.922,0.483C18.675,9.17,19.763,8,21.565,8c0.732,0.731,0.381,2.656,0.102,3.594 c0.836,0.945,1.328,2.066,1.328,3.226c0,2.697-1.904,4.684-5.894,5.097C18.199,20.49,19,22.1,19,23.313v2.734 c0,0.104-0.023,0.179-0.035,0.268C23.641,24.676,27,20.236,27,15C27,8.373,21.627,3,15,3z"
          fill="currentColor"></path>
</symbol><symbol id="icon-revilise" viewBox="0 0 100 79">
    <path d="M72.3239 68.6413C72.3239 69.7459 73.2193 70.6413 74.3239 70.6413H83.5932C84.6978 70.6413 85.5932 71.5367 85.5932 72.6413V77C85.5932 78.1046 84.6978 79 83.5932 79H65.5593C64.4548 79 63.5593 78.1046 63.5593 77V46.1721C63.5593 45.0675 64.4548 44.1721 65.5593 44.1721H83.3484C84.453 44.1721 85.3484 45.0675 85.3484 46.1721V50.481C85.3484 51.5856 84.453 52.481 83.3484 52.481H74.3239C73.2193 52.481 72.3239 53.3764 72.3239 54.481V55.3072C72.3239 56.4117 73.2193 57.3072 74.3239 57.3072H82.1243C83.2289 57.3072 84.1243 58.2026 84.1243 59.3072V63.5166C84.1243 64.6212 83.2289 65.5166 82.1243 65.5166H74.3239C73.2193 65.5166 72.3239 66.4121 72.3239 67.5166V68.6413Z" fill="currentColor"></path>
    <path d="M44.9981 79C41.249 79 38.1417 78.2161 35.6761 76.6483C33.7059 75.3955 32.2101 73.7912 31.1888 71.8356C30.7379 70.972 31.126 69.9388 31.9707 69.4535L36.3042 66.9639C37.3442 66.3664 38.6479 66.8408 39.3749 67.7948C40.7461 69.5941 42.7049 70.4937 45.2514 70.4937C48.021 70.4937 49.4058 69.7098 49.4058 68.142C49.4058 67.1079 48.6121 66.274 47.0246 65.6402C46.3491 65.3733 44.863 64.923 42.5663 64.2892C39.3238 63.3551 36.7569 62.0542 34.8655 60.3863C32.974 58.685 32.0283 56.3333 32.0283 53.3311C32.0283 50.0954 33.1936 47.4768 35.5241 45.4753C37.8884 43.4739 40.8268 42.4731 44.3395 42.4731C47.3117 42.4731 49.9462 43.157 52.2429 44.5246C54.0401 45.5948 55.5064 47.0429 56.6418 48.8688C57.1891 49.7489 56.8241 50.8775 55.9273 51.3971L51.865 53.7509C50.8268 54.3525 49.5283 53.8727 48.7619 52.9496C47.6712 51.6361 46.214 50.9794 44.3901 50.9794C43.3093 50.9794 42.4818 51.1962 41.9077 51.6299C41.3672 52.0635 41.097 52.6139 41.097 53.2811C41.097 54.0483 41.5023 54.6988 42.313 55.2325C43.1573 55.7662 44.7786 56.3834 47.1766 57.0839C48.8992 57.5842 50.284 58.0512 51.331 58.4849C52.378 58.9186 53.5264 59.5524 54.7761 60.3863C56.0258 61.1869 56.9546 62.2377 57.5626 63.5386C58.1705 64.8062 58.4745 66.3073 58.4745 68.0419C58.4745 71.4778 57.2417 74.1631 54.7761 76.0979C52.3105 78.0326 49.0512 79 44.9981 79Z" fill="currentColor"></path>
    <path d="M17.7966 44.4731C17.7966 43.3685 18.6921 42.4731 19.7966 42.4731H25.9661C27.0707 42.4731 27.9661 43.3685 27.9661 44.4731V62.5591C27.9661 63.6637 27.0707 64.5591 25.9661 64.5591H19.7966C18.6921 64.5591 17.7966 63.6637 17.7966 62.5591V44.4731Z" fill="currentColor"></path>
    <path d="M90.678 18.1398C90.678 17.0352 91.5734 16.1398 92.678 16.1398H98C99.1046 16.1398 100 17.0352 100 18.1398V77C100 78.1046 99.1046 79 98 79H92.678C91.5734 79 90.678 78.1046 90.678 77V18.1398Z" fill="currentColor"></path>
    <path d="M90.678 2C90.678 0.895431 91.5734 0 92.678 0H98C99.1046 0 100 0.895431 100 2V7.34409C100 8.44866 99.1046 9.34409 98 9.34409H92.678C91.5734 9.34409 90.678 8.44866 90.678 7.34409V2Z" fill="currentColor"></path>
    <path d="M67.7735 34.828C66.9054 34.828 66.1364 34.268 65.87 33.4418L55.9277 2.61388C55.5112 1.32247 56.4743 0 57.8312 0H63.3118C64.2074 0 64.9938 0.595408 65.2368 1.45743L69.6673 17.1768C70.2145 19.1181 72.9654 19.1207 73.5163 17.1804L77.9815 1.45374C78.2257 0.59355 79.0113 0 79.9055 0H85.3891C86.746 0 87.709 1.32248 87.2926 2.61388L77.3503 33.4418C77.0838 34.268 76.3149 34.828 75.4468 34.828H67.7735Z" fill="currentColor"></path>
    <path d="M40.1206 24.4692C40.1206 25.5738 41.016 26.4692 42.1206 26.4692H51.3899C52.4944 26.4692 53.3899 27.3647 53.3899 28.4692V32.828C53.3899 33.9325 52.4944 34.828 51.3899 34.828H33.356C32.2514 34.828 31.356 33.9325 31.356 32.828V2C31.356 0.895429 32.2514 0 33.356 0H51.145C52.2496 0 53.145 0.89543 53.145 2V6.30896C53.145 7.41353 52.2496 8.30896 51.145 8.30896H42.1206C41.016 8.30896 40.1206 9.20439 40.1206 10.309V11.1351C40.1206 12.2397 41.016 13.1351 42.1206 13.1351H49.9209C51.0255 13.1351 51.9209 14.0305 51.9209 15.1351V19.3446C51.9209 20.4491 51.0255 21.3446 49.9209 21.3446H42.1206C41.016 21.3446 40.1206 22.24 40.1206 23.3446V24.4692Z" fill="currentColor"></path>
    <path fill-rule="evenodd" clip-rule="evenodd" d="M17.7615 34.5413C18.109 35.1934 18.7877 35.6007 19.5265 35.6007H24.5869C26.1073 35.6007 27.0717 33.9712 26.3401 32.6384L21.6824 24.1525C21.1572 23.1957 21.5104 22.0084 22.3634 21.3275C23.4574 20.4542 24.371 19.4141 25.1042 18.2072C26.1753 16.4102 26.7109 14.4437 26.7109 12.3077C26.7109 8.7476 25.4892 5.81478 23.0457 3.50921C20.6357 1.16974 17.6399 0 14.0584 0H2C0.895431 0 0 0.89543 0 2V46.172V47.2688V77C0 78.1046 0.895429 79 2 79H25.9661C27.0707 79 27.9661 78.1046 27.9661 77V72.3925C27.9661 71.288 27.0707 70.3925 25.9661 70.3925H11.0248C9.92021 70.3925 9.02477 69.4971 9.02477 68.3925V46.172C9.02477 46.0396 9.01189 45.9101 8.98731 45.7848V26.1068C8.98731 25.0022 9.89081 24.1068 10.9954 24.1068C11.7342 24.1068 12.4177 24.5141 12.7652 25.1661L17.7615 34.5413ZM8.98731 10.3916C8.98731 9.28702 9.88274 8.39159 10.9873 8.39159H13.9579C15.0625 8.39159 15.9663 8.76455 16.6692 9.51047C17.3721 10.2564 17.7236 11.2227 17.7236 12.4094C17.7236 13.5961 17.3721 14.5624 16.6692 15.3083C15.9663 16.0542 15.0625 16.4102 13.9579 16.3763H10.9873C9.88274 16.3763 8.98731 15.4809 8.98731 14.3763V10.3916Z" fill="currentColor"></path>
</symbol>
</svg>